<svg width="1600" height="900" viewBox="0 0 1600 900" fill="none" xmlns="http://www.w3.org/2000/svg">
<g style="mix-blend-mode:darken" clip-path="url(#clip0_327_7)">
<rect width="1600" height="900" fill="url(#paint0_linear_327_7)"/>
<path fill-rule="evenodd" clip-rule="evenodd" d="M615.915 542.138C622.124 540.047 630.843 541.271 635.688 544.914C638.522 547.045 639.701 548.547 643.779 555.222C648.971 563.719 653.772 568.881 660.882 573.61C667.587 578.069 677.753 582 687.507 583.905C692.549 584.889 693.817 584.996 700.461 585C706.583 585.003 708.91 584.84 714.249 584.034C727.67 582.009 742.195 577.972 753.751 573.056C767.556 567.184 777.535 563.727 803.88 555.688C810.125 553.782 822.692 549.897 831.806 547.055C873.298 534.117 897.27 527.018 916.572 521.953C966.896 508.748 989.849 503.603 1021.15 498.511C1024.7 497.935 1032.57 496.627 1038.64 495.605L1049.69 493.747L1049.85 322.803L1050 151.859L1048.62 151.677C1047.86 151.577 1045.25 151.264 1042.83 150.983C1038.04 150.427 1031.24 148.478 1024.3 145.672C1018.88 143.484 1007.88 137.231 1004.64 134.494C999.751 130.374 995.292 123.824 994.329 119.35C994.132 118.435 993.718 117.597 993.409 117.488C993.1 117.38 988.989 117.479 984.274 117.708C962.638 118.761 945.145 115.278 927.816 106.467C922.329 103.677 914.711 98.9118 912.23 96.7171C910.586 95.2624 909.249 95.4477 909.717 97.0655C910.552 99.9478 906.903 104.919 901.866 107.761C897.809 110.05 894.832 110.843 889.621 111.024C882.089 111.284 877.132 109.449 872.065 104.524C868.9 101.449 866.424 100.01 860.738 97.9461C856.806 96.5185 849.357 93.4439 835.795 87.6514C833.264 86.5697 829.889 85.0394 828.296 84.2504C826.703 83.461 825.145 82.9046 824.834 83.0137C823.809 83.3732 821.205 88.3157 812.155 107.081C810.584 110.338 808.374 114.884 807.243 117.183C806.113 119.482 804.182 123.48 802.953 126.066C801.724 128.653 799.651 132.964 798.347 135.646C797.044 138.329 794.694 143.188 793.127 146.446C791.56 149.703 789.621 153.7 788.817 155.329C783.778 165.546 781.685 170.271 781.163 172.604C780.085 177.433 777.66 181.137 772.882 185.253C770.091 187.658 764.741 190.712 761.975 191.481C757.256 192.791 751.037 194.345 750.512 194.345C750.171 194.345 749.754 194.698 749.587 195.129C749.068 196.461 748.027 208.51 748.027 213.18C748.027 216.265 747.65 218.648 746.786 221.034C746.103 222.918 745.397 226.109 745.219 228.127C745.039 230.144 744.357 233.44 743.701 235.452C742.165 240.164 740.541 255.202 741.316 257.53C742.54 261.204 748.188 262.184 762.699 261.237C765.537 261.051 771.785 260.795 776.586 260.666C784.902 260.443 785.6 260.477 791.374 261.393C800.704 262.872 807.82 265.102 810.988 267.539C814.64 270.349 816.388 275.788 814.908 279.744C814.427 281.033 813.262 282.597 811.989 283.665L809.87 285.441L811.24 286.835C814.551 290.204 815.611 291.623 816.226 293.512C818.07 299.173 813.202 307.011 803.823 313.484C791.827 321.762 788.652 324.093 784.223 327.869C781.573 330.129 778.553 332.971 777.511 334.185L775.616 336.393L777.846 339.831C782.44 346.914 783.922 353.552 782.434 360.378C781.286 365.643 773.228 382.941 770.641 385.694C770.319 386.036 769.652 387.735 769.158 389.469C766.157 399.998 756.997 406.209 739.694 409.447C735.352 410.26 734.581 410.542 732.493 412.079C729.364 414.382 723.383 421.131 718.608 427.746C711.121 438.118 709.347 440.382 705.98 443.867L702.59 447.377L703.261 449.319C703.819 450.933 703.714 452.025 702.635 455.788C700.959 461.633 699.935 463.836 697.211 467.459C690.017 477.031 677.907 486.031 661.361 494.105C651.487 498.923 642.156 505.86 630.662 516.927C625.079 522.302 620.308 527.955 617.689 532.298C616.087 534.953 613.002 541.767 613 542.651C612.999 542.972 613.922 542.809 615.915 542.138Z" fill="#37bcff"/>
<path fill-rule="evenodd" clip-rule="evenodd" d="M971.381 201.888C976.453 204.371 983.577 202.917 987.534 198.592C989.849 196.062 990.813 194.279 994.144 186.354C998.386 176.265 1002.31 170.138 1008.12 164.523C1013.59 159.228 1021.9 154.561 1029.87 152.3C1033.99 151.132 1035.02 151.004 1040.45 151C1045.45 150.996 1047.35 151.19 1051.71 152.147C1062.68 154.552 1074.54 159.344 1083.98 165.18C1095.26 172.152 1103.41 176.256 1124.94 185.801C1130.04 188.064 1140.3 192.676 1147.75 196.05C1181.65 211.411 1201.23 219.839 1217 225.852C1258.11 241.53 1276.86 247.638 1302.43 253.684C1305.33 254.368 1311.76 255.921 1316.72 257.135L1325.75 259.341L1325.87 462.294L1326 665.247L1324.87 665.464C1324.25 665.582 1322.12 665.953 1320.14 666.288C1316.23 666.947 1310.68 669.261 1305 672.593C1300.58 675.19 1291.59 682.615 1288.94 685.864C1284.95 690.755 1281.31 698.532 1280.52 703.843C1280.36 704.93 1280.02 705.925 1279.77 706.054C1279.52 706.183 1276.16 706.065 1272.31 705.793C1254.63 704.542 1240.34 708.678 1226.18 719.138C1221.7 722.451 1215.48 728.109 1213.45 730.714C1212.11 732.442 1211.02 732.221 1211.4 730.301C1212.08 726.879 1209.1 720.977 1204.98 717.603C1201.67 714.885 1199.24 713.943 1194.98 713.729C1188.83 713.42 1184.78 715.599 1180.64 721.446C1178.05 725.097 1176.03 726.804 1171.39 729.255C1168.17 730.95 1162.09 734.6 1151.01 741.478C1148.94 742.762 1146.18 744.579 1144.88 745.516C1143.58 746.453 1142.31 747.113 1142.05 746.984C1141.22 746.557 1139.09 740.689 1131.7 718.41C1130.41 714.543 1128.61 709.146 1127.68 706.416C1126.76 703.686 1125.18 698.94 1124.18 695.869C1123.17 692.798 1121.48 687.68 1120.42 684.496C1119.35 681.311 1117.43 675.541 1116.15 671.674C1114.87 667.807 1113.29 663.061 1112.63 661.128C1108.51 648.997 1106.8 643.388 1106.38 640.617C1105.5 634.884 1103.52 630.486 1099.61 625.6C1097.33 622.744 1092.96 619.118 1090.7 618.206C1086.85 616.65 1081.77 614.805 1081.34 614.805C1081.06 614.805 1080.72 614.387 1080.58 613.875C1080.16 612.293 1079.31 597.988 1079.31 592.444C1079.31 588.781 1079 585.952 1078.29 583.119C1077.74 580.883 1077.16 577.093 1077.01 574.698C1076.87 572.304 1076.31 568.39 1075.77 566.002C1074.52 560.407 1073.19 542.553 1073.83 539.79C1074.83 535.427 1079.44 534.264 1091.29 535.388C1093.61 535.608 1098.72 535.913 1102.64 536.066C1109.43 536.331 1110 536.29 1114.72 535.203C1122.34 533.447 1128.16 530.799 1130.74 527.906C1133.73 524.57 1135.15 518.112 1133.95 513.415C1133.55 511.885 1132.6 510.029 1131.56 508.761L1129.83 506.651L1130.95 504.997C1133.65 500.996 1134.52 499.312 1135.02 497.07C1136.53 490.348 1132.55 481.042 1124.89 473.357C1115.09 463.53 1112.5 460.762 1108.88 456.279C1106.71 453.596 1104.25 450.222 1103.39 448.78L1101.85 446.159L1103.67 442.077C1107.42 433.668 1108.63 425.787 1107.42 417.683C1106.48 411.431 1099.9 390.895 1097.78 387.626C1097.52 387.22 1096.97 385.203 1096.57 383.145C1094.12 370.644 1086.64 363.269 1072.5 359.425C1068.95 358.46 1068.32 358.126 1066.62 356.301C1064.06 353.566 1059.18 345.553 1055.27 337.7C1049.16 325.386 1047.71 322.697 1044.96 318.56L1042.19 314.393L1042.74 312.088C1043.19 310.171 1043.11 308.874 1042.23 304.407C1040.86 297.467 1040.02 294.852 1037.8 290.55C1031.92 279.186 1022.02 268.501 1008.51 258.915C1000.44 253.195 992.818 244.959 983.428 231.82C978.868 225.438 974.97 218.727 972.83 213.571C971.522 210.418 969.002 202.329 969 201.279C968.999 200.898 969.753 201.091 971.381 201.888Z" fill="#37bcff"/>
<path fill-rule="evenodd" clip-rule="evenodd" d="M1274.79 323.445C1265.3 326.377 1243.31 335.868 1230.34 342.629C1210.46 352.985 1198.29 357.351 1183.94 359.276C1177.72 360.11 1174.57 360.286 1165.99 360.282C1153.24 360.275 1146.24 359.459 1136.61 356.856C1128.05 354.54 1124.2 352.901 1113.3 346.945C1098.09 338.629 1089.84 335.712 1075.45 333.557C1069.48 332.662 1066.92 332.51 1058.04 332.518C1035.23 332.538 1015.5 336.234 993.149 344.674C965.319 355.184 951.359 363.367 934.665 378.957C926.466 386.614 922.841 390.966 918.869 397.924C913.004 408.195 910.136 410.974 888.576 427.264C873.982 438.293 853.849 452.523 843.074 459.426C812.976 478.71 790.791 491.87 775.319 499.621C749.34 512.636 738.495 515.895 712.443 518.517C694.509 520.323 684.588 519.801 674.118 516.504C671.121 515.56 661.544 511.683 652.836 507.889C631.492 498.59 621.554 495.1 592.462 486.691C567.071 479.352 552.703 475.813 537.414 473.132C509.205 468.187 483.73 467.486 459.765 470.994C428.112 475.628 405.862 481.207 378.595 491.345C361.825 497.58 349.753 501.392 332.412 505.928C311.406 511.423 282.501 519.448 275.02 521.863C271.411 523.028 264.183 525.618 258.959 527.62C246.312 532.465 218.272 540.248 189.38 546.933C161.244 553.443 151.055 555.325 114.849 560.697C79.3019 565.972 69.9415 566.961 51.4117 567.399C43.5222 567.585 32.4736 567.924 26.8588 568.15C21.2454 568.377 14.8074 568.526 12.5522 568.482C10.2982 568.438 6.55246 568.427 4.22697 568.457L0 568.512V607.256V646H642.5H1285V483.5C1285 389.447 1284.51 321 1283.85 321C1283.22 321 1279.14 322.1 1274.79 323.445Z" fill="#1cb4ff"/>
<path fill-rule="evenodd" clip-rule="evenodd" d="M308.523 547.067C298.432 547.482 290.49 548.327 282.191 549.87C266.502 552.787 253.936 555.713 239.182 559.885C229.554 562.607 204.694 572.076 190.424 578.457C172.305 586.559 159.023 590.508 134.71 595.024C115.295 598.629 111.183 599.004 91.2842 598.987C79.2443 598.977 73.0036 598.819 67.1465 598.375C50.2668 597.096 33.0791 595.181 14.9214 592.556C8.40429 591.613 2.38041 590.762 1.53603 590.662C0.078996 590.491 0 592.575 0 631.241V672H642.5H1285V627.638C1285 603.239 1284.76 583.276 1284.46 583.276C1284.16 583.276 1280.6 584.463 1276.54 585.913C1261.39 591.32 1242.31 596.215 1221.8 599.953C1191.16 605.538 1161.32 609.102 1145.26 609.095C1135.59 609.09 1113.26 608.076 1101.55 607.109C1096.97 606.731 1091.44 606.286 1089.27 606.122C1085.73 605.854 1082.11 605.509 1066.88 603.986C1062.32 603.53 1050.51 602.223 1041.43 601.169C1028.42 599.66 1005.65 596.29 988.765 593.375C966.769 589.576 943.56 584.556 899.237 574.008C838.133 559.468 823.5 556.497 805.758 555.032C802.138 554.733 797.398 554.342 795.225 554.163C793.053 553.984 788.313 553.537 784.693 553.17C768.665 551.546 739.518 551.405 715.791 552.836C707.943 553.31 692.878 554.445 689.459 554.82C671.244 556.819 652.066 559.252 638.111 561.333C610.852 565.398 585.057 568.117 553.41 570.259C541.211 571.085 504.966 571.071 491.53 570.234C480.384 569.54 478.828 569.304 462.126 565.776C436.777 560.421 400.991 553.839 383.553 551.324C362.629 548.306 348.246 547.21 327.394 547.045C318.946 546.977 310.454 546.987 308.523 547.067Z" fill="#004d73"/>
<rect y="613" width="1280" height="107" fill="#004d73"/>
</g>
<defs>
<linearGradient id="paint0_linear_327_7" x1="640" y1="0" x2="640" y2="720" gradientUnits="userSpaceOnUse">
<stop offset="0.240741" stop-color="#00aaff"/>
<stop offset="1" stop-color="white" stop-opacity="0.8"/>
</linearGradient>
<clipPath id="clip0_327_7">
<rect width="1280" height="720" fill="white"/>
</clipPath>
</defs>
</svg>
